<?xml version="1.0" standalone="no"?>
<!DOCTYPE svg PUBLIC "-//W3C//DTD SVG 20010904//EN"
 "http://www.w3.org/TR/2001/REC-SVG-20010904/DTD/svg10.dtd">
<svg version="1.0" xmlns="http://www.w3.org/2000/svg"
 width="225.000000pt" height="225.000000pt" viewBox="0 0 225.000000 225.000000"
 preserveAspectRatio="xMidYMid meet">

<g transform="translate(0.000000,225.000000) scale(0.100000,-0.100000)"
fill="#000000" stroke="none">
<path d="M975 2239 c-229 -29 -448 -135 -621 -301 -110 -106 -172 -189 -234
-313 -177 -358 -153 -779 64 -1115 64 -98 214 -251 312 -316 462 -308 1062
-241 1444 162 259 273 362 642 280 1014 -48 222 -151 402 -322 566 -250 239
-575 346 -923 303z m500 -1107 l-205 -2 0 -285 0 -285 -145 0 -145 0 0 285 0
285 -207 0 -208 0 280 280 280 280 278 -277 277 -278 -205 -3z"/>
</g>
</svg>
