<svg id="SvgjsSvg1066" width="288" height="288" xmlns="http://www.w3.org/2000/svg" version="1.1" xmlns:xlink="http://www.w3.org/1999/xlink" xmlns:svgjs="http://svgjs.com/svgjs"><defs id="SvgjsDefs1067"></defs><g id="SvgjsG1068"><svg xmlns="http://www.w3.org/2000/svg" xmlns:svgjs="http://svgjs.com/svgjs" xmlns:xlink="http://www.w3.org/1999/xlink" width="288" height="288"><svg xmlns="http://www.w3.org/2000/svg" width="288" height="288" version="1.0" viewBox="0 0 512 512"><g fill="#ff6699" class="color000 svgShape colorfff" transform="matrix(.1 0 0 -.1 0 512)"><path d="M524 5111c-234-37-431-213-500-446-24-81-24-239 0-320 31-106 84-194 166-276 118-119 261-179 425-179 164 0 305 59 425 179 194 192 240 466 119 709-73 148-216 268-376 315-65 20-193 28-259 18zM3710 3495c-8-2-49-9-90-15-148-24-337-99-458-182-79-54-225-203-272-277-25-39-48-71-52-71-4 0-9 105-10 233l-3 232-505 0-505 0-3-1707-2-1708 530 0 529 0 4 978c2 886 4 985 20 1066 35 173 90 287 183 376 116 111 253 155 459 147 176-7 261-42 358-146 61-66 109-169 138-297 23-99 23-103 26-1111l4-1013 529 0 530 0 0 963c0 975-7 1262-35 1455-94 642-366 956-916 1058-76 14-421 29-459 19zM90 1710l0-1710 525 0 525 0 0 1710 0 1710-525 0-525 0 0-1710z" class="color000 svgShape" fill="#ff6699"></path></g></svg></svg></g></svg>