<svg id="SvgjsSvg1073" width="288" height="288" xmlns="http://www.w3.org/2000/svg" version="1.1" xmlns:xlink="http://www.w3.org/1999/xlink" xmlns:svgjs="http://svgjs.com/svgjs"><defs id="SvgjsDefs1074"></defs><g id="SvgjsG1075"><svg xmlns="http://www.w3.org/2000/svg" width="288" height="288" version="1.0" viewBox="0 0 225 225"><path d="M1389 1957 c-119 -41 -207 -119 -263 -237 -28 -59 -31 -75 -33 -175l-2 -109 -43 2 c-138 8 -315 60 -463 135 -124 62 -223 135 -326 237 l-87 88
-23 -52 c-34 -77 -39 -222 -10 -309 25 -75 83 -161 136 -201 20 -16 35 -30 33
-32 -7 -6 -137 25 -167 41 -30 15 -31 15 -31 -4 0 -40 23 -127 47 -179 50
-106 139 -181 283 -240 23 -9 22 -10 -22 -17 -25 -4 -69 -5 -97 -4 -28 2 -51
3 -51 1 0 -2 12 -29 27 -60 57 -117 179 -206 322 -235 l65 -13 -55 -36 c-151
-99 -273 -138 -469 -147 l-125 -6 90 -46 c196 -101 363 -141 585 -142 358 0
646 116 886 357 233 234 365 530 381 857 l6 115 61 50 c68 56 173 183 141 170
-44 -18 -135 -45 -182 -54 l-50 -9 62 58 c35 33 75 84 93 118 18 32 32 61 32
63 0 2 -30 -11 -67 -28 -38 -18 -100 -42 -138 -52 l-71 -20 -29 25 c-133 110
-294 142 -446 90z" transform="matrix(.1 0 0 -.1 0 225)" fill="#ff6699" class="color000 svgShape"></path></svg></g></svg>